<svg xmlns="http://www.w3.org/2000/svg" xmlns:xlink="http://www.w3.org/1999/xlink" version="1.1" width="48" height="48" viewBox="0 0 48 48" xml:space="preserve">
<desc>Created with Fabric.js 3.5.0</desc>
<defs>
</defs>
<rect x="0" y="0" width="100%" height="100%" fill="rgba(0,0,0,0)"/>
<g transform="matrix(1.449 0 0 1.449 22.8614 23.873)" id="828971">
<g style="">
		<g transform="matrix(5.2452 0 0 5.2452 0 0)" id="559825">
<g style="">
		<g transform="matrix(0 -0.3309 0.3309 0 0.0001 0)" id="330323">
<path style="stroke: none; stroke-width: 0; stroke-dasharray: none; stroke-linecap: butt; stroke-dashoffset: 0; stroke-linejoin: miter; stroke-miterlimit: 4; is-custom-font: none; font-file-url: none; fill: rgb(70,40,250); fill-rule: nonzero; opacity: 1;" vector-effect="non-scaling-stroke" transform=" translate(-10, -8.1026)" d="M 12.547 1.621 l 6.095 9.794 A 3 3 0 0 1 16.095 16 H 3.905 a 3 3 0 0 1 -2.547 -4.585 L 7.453 1.62 a 3 3 0 0 1 5.094 0 z" stroke-linecap="round"/>
</g>
		<g transform="matrix(0 0.1873 -0.1873 0 0.8715 -0.0227)" id="949120">
<path style="stroke: none; stroke-width: 0; stroke-dasharray: none; stroke-linecap: butt; stroke-dashoffset: 0; stroke-linejoin: miter; stroke-miterlimit: 4; is-custom-font: none; font-file-url: none; fill: rgb(255,255,255); fill-rule: nonzero; opacity: 1;" vector-effect="non-scaling-stroke" transform=" translate(-10, -8.1026)" d="M 12.547 1.621 l 6.095 9.794 A 3 3 0 0 1 16.095 16 H 3.905 a 3 3 0 0 1 -2.547 -4.585 L 7.453 1.62 a 3 3 0 0 1 5.094 0 z" stroke-linecap="round"/>
</g>
</g>
</g>
		<g transform="matrix(0.0078 0 0 0.0078 9.1283 -10.6654)" id="160923">
<g style="" vector-effect="non-scaling-stroke">
		<g transform="matrix(33.3333 0 0 33.3333 -0.0003 -0.0003)">
<path style="stroke: rgb(249,249,249); stroke-width: 1.5; stroke-dasharray: none; stroke-linecap: round; stroke-dashoffset: 0; stroke-linejoin: round; stroke-miterlimit: 4; is-custom-font: none; font-file-url: none; fill: none; fill-rule: nonzero; opacity: 1;" transform=" translate(-12, -12)" d="M 12 22 C 17.5228 22 22 17.5228 22 12 C 22 6.47715 17.5228 2 12 2 C 6.47715 2 2 6.47715 2 12 C 2 17.5228 6.47715 22 12 22 Z" stroke-linecap="round"/>
</g>
		<g transform="matrix(33.3333 0 0 33.3333 167.8533 -108.3334)">
<path style="stroke: rgb(249,249,249); stroke-width: 1.5; stroke-dasharray: none; stroke-linecap: round; stroke-dashoffset: 0; stroke-linejoin: round; stroke-miterlimit: 4; is-custom-font: none; font-file-url: none; fill: none; fill-rule: nonzero; opacity: 1;" transform=" translate(-17.0356, -8.75)" d="M 17.1973 9 C 17.0976 8.82774 16.9896 8.66089 16.8739 8.5" stroke-linecap="round"/>
</g>
		<g transform="matrix(33.3333 0 0 33.3333 121.8499 121.8499)">
<path style="stroke: rgb(249,249,249); stroke-width: 1.5; stroke-dasharray: none; stroke-linecap: round; stroke-dashoffset: 0; stroke-linejoin: round; stroke-miterlimit: 4; is-custom-font: none; font-file-url: none; fill: none; fill-rule: nonzero; opacity: 1;" transform=" translate(-15.6555, -15.6555)" d="M 17.811 13.5 C 17.2683 15.6084 15.6084 17.2683 13.5 17.811" stroke-linecap="round"/>
</g>
</g>
</g>
</g>
</g>
</svg>