<svg xmlns="http://www.w3.org/2000/svg" xmlns:xlink="http://www.w3.org/1999/xlink" version="1.1" width="171" height="36" viewBox="0 0 171 36" xml:space="preserve">
<desc>Created with Fabric.js 3.5.0</desc>
<defs>
</defs>
<rect x="0" y="0" width="100%" height="100%" fill="rgba(69,51,102,0)"/>
<g transform="matrix(0.1694 0 0 0.1694 40.5956 17.2957)" id="458236">
<path style="stroke: none; stroke-width: 0; stroke-dasharray: none; stroke-linecap: butt; stroke-dashoffset: 0; stroke-linejoin: miter; stroke-miterlimit: 4; is-custom-font: none; font-file-url: none; fill: rgb(255,255,255); fill-rule: nonzero; opacity: 1;" transform=" translate(350.505, 1.415)" d="M -364.46 45.24 L -394.98 45.24 L -394.98 -48.07 L -364.46 -48.07 L -364.46 45.24 Z M -336.97 -29.44 L -359.54 -29.44 L -359.54 -48.07 L -324.66 -48.07 L -306.03 -29.44 L -306.03 2.56 L -324.66 21.26 L -359.54 21.26 L -359.54 2.56 L -336.97 2.56 L -336.97 -29.44 Z" stroke-linecap="round"/>
</g>
<g transform="matrix(0.1694 0 0 0.1694 54.6257 16.4085)" id="458236">
<path style="stroke: none; stroke-width: 0; stroke-dasharray: none; stroke-linecap: butt; stroke-dashoffset: 0; stroke-linejoin: miter; stroke-miterlimit: 4; is-custom-font: none; font-file-url: none; fill: rgb(255,255,255); fill-rule: nonzero; opacity: 1;" transform=" translate(267.655, 6.655)" d="M -283.23 45.24 L -283.23 -29.44 L -252.08 -29.44 L -252.08 45.24 L -283.23 45.24 Z M -283.23 -38.72 L -283.23 -58.55 L -252.08 -58.55 L -252.08 -38.72 L -283.23 -38.72 Z" stroke-linecap="round"/>
</g>
<g transform="matrix(0.1694 0 0 0.1694 67.1212 18.8729)" id="458236">
<path style="stroke: none; stroke-width: 0; stroke-dasharray: none; stroke-linecap: butt; stroke-dashoffset: 0; stroke-linejoin: miter; stroke-miterlimit: 4; is-custom-font: none; font-file-url: none; fill: rgb(255,255,255); fill-rule: nonzero; opacity: 1;" transform=" translate(193.88, -7.9)" d="M -234.91 -29.44 L -202.56 -29.44 L -152.85 45.24 L -185.13 45.24 L -234.91 -29.44 Z M -174.37 5.02 L -190.4 -19.1 L -185.13 -29.44 L -152.85 -29.44 L -174.37 5.02 Z M -197.5 34.76 L -202.56 45.24 L -234.91 45.24 L -214.16 9.66 L -197.5 34.76 Z" stroke-linecap="round"/>
</g>
<g transform="matrix(0.1694 0 0 0.1694 83.0746 18.8729)" id="458236">
<path style="stroke: none; stroke-width: 0; stroke-dasharray: none; stroke-linecap: butt; stroke-dashoffset: 0; stroke-linejoin: miter; stroke-miterlimit: 4; is-custom-font: none; font-file-url: none; fill: rgb(255,255,255); fill-rule: nonzero; opacity: 1;" transform=" translate(99.68, -7.9)" d="M -59.25 45.24 L -89.62 45.24 L -89.62 -10.8 L -133.85 -10.8 L -133.85 -20.08 L -124.5 -29.44 L -77.88 -29.44 L -59.25 -10.8 L -59.25 45.24 Z M -127.59 1.78 L -94.54 1.78 L -94.54 14.72 L -110.58 14.72 L -110.58 27.8 L -94.54 27.8 L -94.54 36.03 L -103.83 45.24 L -127.59 45.24 L -140.11 32.93 L -140.11 14.23 L -127.59 1.78 Z" stroke-linecap="round"/>
</g>
<g transform="matrix(0.1694 0 0 0.1694 100.6895 21.0878)" id="458236">
<path style="stroke: none; stroke-width: 0; stroke-dasharray: none; stroke-linecap: butt; stroke-dashoffset: 0; stroke-linejoin: miter; stroke-miterlimit: 4; is-custom-font: none; font-file-url: none; fill: rgb(255,255,255); fill-rule: nonzero; opacity: 1;" transform=" translate(-4.33, -20.975)" d="M 13.69 55.08 L 13.69 -10.8 L -0.1 -10.8 L -0.1 -29.44 L 26.13 -29.44 L 44.76 -10.8 L 44.76 52.62 L 26.13 71.39 L -14.86 71.39 L -24.21 61.97 L -24.21 55.08 L 13.69 55.08 Z M -5.02 27.8 L 8.76 27.8 L 8.76 36.03 L -0.52 45.24 L -17.46 45.24 L -36.1 26.6 L -36.1 -10.8 L -17.46 -29.44 L -5.02 -29.44 L -5.02 27.8 Z" stroke-linecap="round"/>
</g>
<g transform="matrix(0.1694 0 0 0.1694 118.3765 18.8729)" id="458236">
<path style="stroke: none; stroke-width: 0; stroke-dasharray: none; stroke-linecap: butt; stroke-dashoffset: 0; stroke-linejoin: miter; stroke-miterlimit: 4; is-custom-font: none; font-file-url: none; fill: rgb(255,255,255); fill-rule: nonzero; opacity: 1;" transform=" translate(-108.765, -7.9)" d="M 117.84 7.34 L 117.84 -10.8 L 104.62 -10.8 L 104.62 -18.96 L 115.02 -29.44 L 133.87 -29.44 L 148.98 -12 L 148.98 7.34 L 117.84 7.34 Z M 99.63 45.24 L 68.55 45.24 L 68.55 -29.44 L 99.63 -29.44 L 99.63 45.24 Z" stroke-linecap="round"/>
</g>
<g transform="matrix(0.1694 0 0 0.1694 134.3715 18.8729)" id="458236">
<path style="stroke: none; stroke-width: 0; stroke-dasharray: none; stroke-linecap: butt; stroke-dashoffset: 0; stroke-linejoin: miter; stroke-miterlimit: 4; is-custom-font: none; font-file-url: none; fill: rgb(255,255,255); fill-rule: nonzero; opacity: 1;" transform=" translate(-203.21, -7.9)" d="M 243.64 45.24 L 213.27 45.24 L 213.27 -10.8 L 169.04 -10.8 L 169.04 -20.08 L 178.39 -29.44 L 225.01 -29.44 L 243.64 -10.8 L 243.64 45.24 Z M 175.3 1.78 L 208.35 1.78 L 208.35 14.72 L 192.32 14.72 L 192.32 27.8 L 208.35 27.8 L 208.35 36.03 L 199.07 45.24 L 175.3 45.24 L 162.78 32.93 L 162.78 14.23 L 175.3 1.78 Z" stroke-linecap="round"/>
</g>
<g transform="matrix(0.1694 0 0 0.1694 156.3104 18.8729)" id="458236">
<path style="stroke: none; stroke-width: 0; stroke-dasharray: none; stroke-linecap: butt; stroke-dashoffset: 0; stroke-linejoin: miter; stroke-miterlimit: 4; is-custom-font: none; font-file-url: none; fill: rgb(255,255,255); fill-rule: nonzero; opacity: 1;" transform=" translate(-332.745, -7.9)" d="M 299.63 45.24 L 268.48 45.24 L 268.48 -29.44 L 299.63 -29.44 L 299.63 45.24 Z M 317.21 45.24 L 317.21 -10.8 L 304.55 -10.8 L 304.55 -19.59 L 314.33 -29.44 L 338.37 -29.44 L 348.36 -19.45 L 348.36 45.24 L 317.21 45.24 Z M 365.94 45.24 L 365.94 -10.8 L 353.28 -10.8 L 353.28 -19.45 L 362.84 -29.44 L 381.83 -29.44 L 397.01 -14.11 L 397.01 45.24 L 365.94 45.24 Z" stroke-linecap="round"/>
</g>
<g transform="matrix(0 -1.7079 1.7079 0 14.3569 17.533)" id="330323">
<path style="stroke: none; stroke-width: 0; stroke-dasharray: none; stroke-linecap: butt; stroke-dashoffset: 0; stroke-linejoin: miter; stroke-miterlimit: 4; is-custom-font: none; font-file-url: none; fill: rgb(70,40,250); fill-rule: nonzero; opacity: 1;" vector-effect="non-scaling-stroke" transform=" translate(-10, -8.1026)" d="M 12.547 1.621 l 6.095 9.794 A 3 3 0 0 1 16.095 16 H 3.905 a 3 3 0 0 1 -2.547 -4.585 L 7.453 1.62 a 3 3 0 0 1 5.094 0 z" stroke-linecap="round"/>
</g>
<g transform="matrix(0 0.9669 -0.9669 0 18.8539 17.4173)" id="949120">
<path style="stroke: none; stroke-width: 0; stroke-dasharray: none; stroke-linecap: butt; stroke-dashoffset: 0; stroke-linejoin: miter; stroke-miterlimit: 4; is-custom-font: none; font-file-url: none; fill: rgb(255,255,255); fill-rule: nonzero; opacity: 1;" vector-effect="non-scaling-stroke" transform=" translate(-10, -8.1026)" d="M 12.547 1.621 l 6.095 9.794 A 3 3 0 0 1 16.095 16 H 3.905 a 3 3 0 0 1 -2.547 -4.585 L 7.453 1.62 a 3 3 0 0 1 5.094 0 z" stroke-linecap="round"/>
</g>
<g transform="matrix(0.0069 0 0 0.0069 22.6479 7.3775)" id="877725">
<g style="" vector-effect="non-scaling-stroke">
		<g transform="matrix(33.3333 0 0 33.3333 -0.0003 -0.0003)">
<path style="stroke: rgb(255,255,255); stroke-width: 1.5; stroke-dasharray: none; stroke-linecap: round; stroke-dashoffset: 0; stroke-linejoin: round; stroke-miterlimit: 4; is-custom-font: none; font-file-url: none; fill: none; fill-rule: nonzero; opacity: 1;" transform=" translate(-12, -12)" d="M 12 22 C 17.5228 22 22 17.5228 22 12 C 22 6.47715 17.5228 2 12 2 C 6.47715 2 2 6.47715 2 12 C 2 17.5228 6.47715 22 12 22 Z" stroke-linecap="round"/>
</g>
		<g transform="matrix(33.3333 0 0 33.3333 167.8533 -108.3334)">
<path style="stroke: rgb(255,255,255); stroke-width: 1.5; stroke-dasharray: none; stroke-linecap: round; stroke-dashoffset: 0; stroke-linejoin: round; stroke-miterlimit: 4; is-custom-font: none; font-file-url: none; fill: none; fill-rule: nonzero; opacity: 1;" transform=" translate(-17.0356, -8.75)" d="M 17.1973 9 C 17.0976 8.82774 16.9896 8.66089 16.8739 8.5" stroke-linecap="round"/>
</g>
		<g transform="matrix(33.3333 0 0 33.3333 121.8499 121.8499)">
<path style="stroke: rgb(255,255,255); stroke-width: 1.5; stroke-dasharray: none; stroke-linecap: round; stroke-dashoffset: 0; stroke-linejoin: round; stroke-miterlimit: 4; is-custom-font: none; font-file-url: none; fill: none; fill-rule: nonzero; opacity: 1;" transform=" translate(-15.6555, -15.6555)" d="M 17.811 13.5 C 17.2683 15.6084 15.6084 17.2683 13.5 17.811" stroke-linecap="round"/>
</g>
</g>
</g>
</svg>