<svg xmlns="http://www.w3.org/2000/svg" viewBox="0 0 14 14" version="1.1">
	<path d="M6.538 0.26061C5.741946 0.32852400000000004 5.086676 0.501844 4.430034 0.8181320000000001C2.86881 1.5701559999999999 1.7337600000000002 2.95834 1.308566 4.635708C1.1087580000000001 5.423978 1.077944 6.410236 1.22577 7.287C1.33896 7.958454000000001 1.593648 8.676892 1.910664 9.219C2.358258 9.984408 3.324258 11.08086 4.249 11.873092C4.842908 12.381894 6.023416 13.245428 6.349714 13.409746000000002C6.740188 13.60639 7.212156 13.612718000000001 7.623 13.426812C7.77917 13.356154 8.580502000000001 12.800704 9.079 12.417566C9.647582000000002 11.980556 10.018736 11.655882 10.493518 11.180190000000001C10.948658 10.724167999999999 11.366166 10.246236 11.717552 9.779C12.33638 8.956150000000001 12.694108 8.030316000000001 12.831868 6.8950000000000005C12.862388 6.643504 12.874232 5.959338 12.853106 5.668838C12.795888 4.882248000000001 12.618522 4.21085 12.284818 3.517598C11.544554 1.979712 10.127964 0.831642 8.463000000000001 0.420224C7.96096 0.29617000000000004 7.686769999999999 0.26432 7.077 0.25922399999999995C6.8152 0.25702600000000003 6.57265 0.257656 6.538 0.26061M6.783 1.255254C5.72901 1.295742 4.7502 1.655486 3.948 2.29719C3.115056 2.963492 2.536478 3.866828 2.276456 4.907C2.167718 5.341994000000001 2.119334 5.898032000000001 2.143764 6.431782C2.188032 7.398776000000001 2.468592 8.283744 2.957024 8.997058C3.0105320000000004 9.075178 3.1498600000000003 9.258816000000001 3.266648 9.40513C4.1685 10.534972000000002 5.118274 11.385094 6.59064 12.380354C6.8177900000000005 12.533906 6.898374 12.56549 7.034846 12.554542000000001C7.157668 12.544686 7.2196880000000005 12.512444 7.543900000000001 12.289886000000001C8.993613999999999 11.294766000000001 9.931404 10.438372 10.821285999999999 9.296924C11.225508 8.778448000000001 11.459629999999999 8.332212 11.640761999999999 7.735C11.79437 7.228578 11.86255 6.736576 11.861962 6.139C11.861360000000001 5.543636 11.79507 5.08788 11.638088000000002 4.599728000000001C11.350066000000002 3.7041199999999996 10.864042000000001 2.981916 10.131254 2.3606800000000003C9.469516 1.799658 8.583176 1.409968 7.708442 1.295448C7.5351919999999994 1.2727680000000001 7.072646000000001 1.2443199999999999 6.9510000000000005 1.24887C6.9125000000000005 1.250312 6.836900000000001 1.253182 6.783 1.255254M5.46 3.6673560000000003C4.749248000000001 3.8190320000000004 4.205138000000001 4.4025099999999995 4.036368 5.194C4.016572 5.286876 4.011 5.376014 4.011 5.6000000000000005C4.011 5.890122000000001 4.01975 5.9720640000000005 4.076786 6.216C4.2900480000000005 7.128268 5.021450000000001 8.08647 6.006 8.743462000000001C6.4780940000000005 9.058504 6.8299 9.186492 7.111048 9.145514C7.35161 9.110458 7.642922 8.97778 7.994 8.743406C9.003708 8.069306000000001 9.745722 7.080248 9.938054 6.152118000000001C10.010126 5.804302000000001 10.014410000000002 5.414514 9.949183999999999 5.138C9.746814 4.280094 9.085314 3.6755600000000004 8.31404 3.64371C7.887683999999999 3.6260980000000003 7.46984 3.7737000000000003 7.0875 4.076996L7 4.146408 6.9125000000000005 4.076996C6.467594 3.72407 5.91913 3.569398 5.46 3.6673560000000003M5.577782 4.67264C5.354356 4.752692000000001 5.154744000000001 4.978274 5.060720000000001 5.257C4.919558 5.675432 5.052054 6.231806000000001 5.426232000000001 6.791834C5.772284 7.309792000000001 6.368726 7.846608 6.864424 8.086260000000001L7 8.151808 7.135576 8.086260000000001C7.630980000000001 7.846748 8.227730000000001 7.3097639999999995 8.573334 6.7925059999999995C9.087484 6.02294 9.13255 5.30019 8.694042000000001 4.856796C8.619226 4.781154000000001 8.560874 4.7368440000000005 8.491252000000001 4.702796C8.397592 4.657001999999999 8.387008 4.655028000000001 8.239252 4.655672C8.103774 4.656274 8.073786 4.661020000000001 7.992894000000001 4.694704000000001C7.814674000000001 4.768918 7.642922 4.90364 7.448 5.122082C7.320417999999999 5.265064000000001 7.232316000000001 5.3261460000000005 7.110222 5.356274C7.031472 5.375706 7.002688 5.376616 6.918086 5.36235C6.78699 5.340244 6.688612 5.2757320000000005 6.5520000000000005 5.12232C6.356616 4.902912000000001 6.183282 4.767182 6.007106 4.69567C5.8833459999999995 4.645438 5.6836079999999995 4.634728 5.577782 4.67264" stroke="none" fill="#877eff" fill-rule="evenodd"></path>
</svg>